<?xml version="1.0" encoding="UTF-8"?>
<svg width="512px" height="398px" viewBox="0 0 512 398" version="1.1" xmlns="http://www.w3.org/2000/svg" xmlns:xlink="http://www.w3.org/1999/xlink">
    <!-- Generator: Sketch 49.3 (51167) - http://www.bohemiancoding.com/sketch -->
    <title>lithia</title>
    <desc>Created with Sketch.</desc>
    <defs></defs>
    <g id="Page-1" stroke="none" stroke-width="1" fill="none" fill-rule="evenodd">
        <g id="lithia" fill-rule="nonzero">
            <g id="Group" transform="translate(27.000000, 196.000000)">
                <g id="Shape">
                    <path d="M144.993,25.833 C150.503,20.329 152.432,12.784 153.06,7.175 C153.498,3.262 150.132,-0.008 146.24,0.588 C89.663,9.25 39.377,6.63 4.15,3.848 C2.491,3.717 0.996,4.84 0.661,6.47 C0.299,8.234 1.426,9.961 3.184,10.351 C131.81,38.834 231.205,68.434 231.205,68.434 L236.226,61.304 L144.993,25.833 Z" fill="#229BFF"></path>
                    <path d="M144.992,25.836 C144.992,25.836 97.474,32.671 4.153,3.848 C39.374,6.631 89.664,9.253 146.235,0.589 C150.132,-0.002 153.492,3.26 153.062,7.18 C152.431,12.779 150.505,20.333 144.992,25.836 Z" fill="#037CFF"></path>
                </g>
                <path d="M153.063,7.182 C152.436,12.784 150.5,20.332 144.995,25.837 C144.995,25.837 128.838,28.162 96.86,24.377 C114.066,23.479 129.206,14.741 138.755,1.667 C141.232,1.332 143.73,0.975 146.239,0.586 C150.133,0.001 153.496,3.257 153.063,7.182 Z" id="Shape" fill="#0066F9"></path>
            </g>
            <g id="Group" transform="translate(302.000000, 0.000000)">
                <path d="M52.479,242.488 C46.554,224.912 53.152,213.587 58.271,207.135 C108.157,144.253 113.383,52.147 112.455,5.987 C112.336,0.073 104.148,-1.384 102.014,4.133 C73.396,78.118 5.136,182.045 0.976,209.659 C-1.563,226.516 14.369,247.716 29.527,263.625 C37.146,256.546 44.805,249.509 52.479,242.488 Z" id="Shape" fill="#F97C15"></path>
                <path d="M49.157,182.291 C62.092,157.904 78.968,128.058 94.718,97.941 C98.591,90.535 96.358,81.402 89.524,76.591 L89.247,76.396 C81.081,70.646 69.725,73.375 65.061,82.206 C48.884,112.83 31.892,142.809 19.444,166.658 C14.429,176.266 19.723,188.034 30.231,190.684 C37.719,192.573 45.538,189.114 49.157,182.291 Z" id="Shape" fill="#FF993A"></path>
                <path d="M68.7,146.25 C72.892,138.586 77.205,130.693 81.538,122.675 C85.783,114.82 83.107,105.011 75.46,100.402 L75.172,100.228 C67.064,95.341 56.521,98.217 52.004,106.537 C47.643,114.569 43.327,122.447 39.16,130.067 C34.951,137.763 37.436,147.386 44.824,152.116 C44.919,152.177 45.013,152.237 45.108,152.298 C53.235,157.502 64.069,154.717 68.7,146.25 Z" id="Shape" fill="#FFAF40"></path>
            </g>
            <g id="Group" transform="translate(309.000000, 87.000000)">
                <path d="M17.253,227.715 C17.253,227.715 -12.017,159.388 7.01,134.278 C23.876,112.02 133.542,53.423 194.072,2.151 C198.586,-1.672 205.078,3.525 202.353,8.775 C181.081,49.752 132.421,128.13 58.528,159.477 C46.657,164.513 25.882,178.297 40.877,231.207 L17.253,227.715 Z" id="Shape" fill="#FFAF40"></path>
                <path d="M58.533,159.472 C46.659,164.512 25.884,178.3 40.873,231.204 L17.254,227.711 C17.254,227.711 -2.612,181.349 1.032,150.971 C11.836,154.421 23.796,156.335 36.385,156.335 C54.412,156.336 71.164,152.411 85.05,145.684 C76.615,150.907 67.768,155.558 58.533,159.472 Z" id="Shape" fill="#464646" style="mix-blend-mode: soft-light;"></path>
                <path d="M62.414,133.299 C85.441,118.074 114.541,99.941 142.781,81.032 C149.726,76.382 152.134,67.294 148.436,59.799 L148.286,59.495 C143.867,50.539 132.589,47.502 124.268,53.024 C95.41,72.174 66.145,90.369 43.803,105.354 C34.802,111.391 33.82,124.257 41.779,131.613 C47.451,136.855 55.971,137.559 62.414,133.299 Z" id="Shape" fill="#BDBDBD" style="mix-blend-mode: soft-light;"></path>
                <path d="M96.819,111.003 C104.167,106.279 111.731,101.412 119.372,96.445 C126.858,91.579 129.201,81.685 124.692,73.979 L124.522,73.689 C119.741,65.518 109.107,62.999 101.159,68.143 C93.487,73.109 85.927,77.962 78.622,82.659 C71.243,87.403 68.821,97.042 73.045,104.73 C73.099,104.829 73.153,104.927 73.208,105.026 C77.855,113.484 88.702,116.222 96.819,111.003 Z" id="Shape" fill="#C6C3C3" style="mix-blend-mode: soft-light;"></path>
            </g>
            <g id="Group" transform="translate(188.000000, 11.000000)">
                <path d="M74.562,290.217 C74.562,290.217 5.449,262.855 1.033,231.661 C-2.882,204.011 32.789,84.898 39.043,5.818 C39.509,-0.079 47.772,-1.025 49.578,4.607 C63.674,48.572 85.02,138.323 55.21,212.849 C50.421,224.822 45.568,249.277 93.683,275.909 L74.562,290.217 Z" id="Shape" fill="#F97C15"></path>
                <path d="M93.687,275.908 L74.567,290.216 C74.567,290.216 12.665,265.71 2.283,236.652 C3.181,236.695 4.089,236.717 5.008,236.717 C27.167,236.717 46.579,224.94 57.318,207.302 C56.648,209.162 55.945,211.011 55.209,212.85 C50.418,224.82 45.563,249.283 93.687,275.908 Z" id="Shape" fill="#E86300"></path>
                <path d="M39.369,191.652 C44.786,164.583 52.417,131.156 58.892,97.793 C60.484,89.588 55.731,81.477 47.806,78.821 L47.484,78.713 C38.015,75.54 27.914,81.404 25.971,91.2 C19.232,125.172 11.528,158.76 6.423,185.173 C4.366,195.814 12.806,205.575 23.634,205.109 C31.351,204.776 37.853,199.225 39.369,191.652 Z" id="Shape" fill="#FF993A"></path>
                <path d="M47.783,151.526 C49.607,142.983 51.481,134.186 53.339,125.263 C55.159,116.522 49.788,107.889 41.142,105.66 L40.816,105.576 C31.649,103.213 22.369,108.985 20.421,118.25 C18.54,127.194 16.659,135.978 14.846,144.471 C13.015,153.05 18.149,161.56 26.582,163.978 L26.906,164.071 C36.183,166.733 45.768,160.964 47.783,151.526 Z" id="Shape" fill="#FFAF40"></path>
            </g>
            <g id="Group" transform="translate(233.000000, 20.000000)">
                <path d="M52.409,285.022 C52.409,285.022 -4.733,237.482 0.793,206.466 C5.691,178.972 76.711,76.911 107.3,3.72 C109.581,-1.738 117.727,-0.062 117.687,5.853 C117.378,52.021 109.687,143.954 58.134,205.477 C49.852,215.361 37.618,237.085 75.035,277.387 L52.409,285.022 Z" id="Shape" fill="#FFAF40"></path>
                <path d="M75.031,277.387 L52.407,285.022 C52.407,285.022 -3.363,238.628 0.616,207.601 C5.039,208.347 9.57,208.737 14.199,208.737 C39.007,208.737 61.231,197.609 76.123,180.068 C70.824,188.947 64.854,197.468 58.139,205.482 C49.855,215.366 37.624,237.082 75.031,277.387 Z" id="Shape" fill="#FF993A"></path>
                <path d="M75.03,277.39 L52.41,285.02 C52.41,285.02 28.47,265.1 13.08,242.64 C29.68,241.18 43.85,231.25 51.26,217.21 C46.93,229.5 48.45,248.75 75.03,277.39 Z" id="Shape" fill="#F97C15"></path>
                <path d="M49.689,180.398 C63.273,156.366 80.943,126.983 97.493,97.299 C101.563,89.999 99.575,80.81 92.873,75.817 L92.601,75.614 C84.592,69.648 73.167,72.072 68.268,80.774 C51.276,110.953 33.487,140.467 20.405,163.973 C15.134,173.443 20.111,185.348 30.545,188.28 C37.98,190.369 45.889,187.121 49.689,180.398 Z" id="Shape" fill="#FFC751"></path>
                <path d="M70.191,144.893 C74.587,137.344 79.109,129.57 83.656,121.67 C88.11,113.932 85.697,104.054 78.177,99.242 L77.893,99.061 C69.919,93.958 59.303,96.551 54.564,104.747 C49.989,112.659 45.464,120.419 41.094,127.925 C36.68,135.506 38.906,145.192 46.165,150.118 C46.258,150.181 46.351,150.244 46.444,150.308 C54.43,155.727 65.335,153.233 70.191,144.893 Z" id="Shape" fill="#FFE059"></path>
            </g>
            <g id="Group" transform="translate(0.000000, 248.000000)">
                <g id="Shape">
                    <path d="M145.277,26.349 C149.567,19.849 149.939,12.071 149.426,6.45 C149.068,2.529 145.113,0.003 141.42,1.37 C87.742,21.234 37.956,28.783 2.89,33.144 C1.238,33.35 -1.37667655e-14,34.751 -1.37667655e-14,36.415 C-1.37667655e-14,38.215 1.452,39.681 3.252,39.709 C134.979,41.736 238.296,50.737 238.296,50.737 L241.78,42.743 L145.277,26.349 Z" fill="#229BFF"></path>
                    <path d="M211.746,48.448 C211.746,48.448 185.965,39.573 197.114,21.54 C208.263,3.507 251.114,39.042 251.114,39.042 L211.746,48.448 Z" fill="#7CBAF7"></path>
                    <path d="M145.277,26.351 C145.277,26.351 100.105,42.605 2.894,33.143 C37.955,28.785 87.744,21.236 141.417,1.37 C145.116,0.007 149.063,2.527 149.431,6.453 C149.938,12.065 149.57,19.852 145.277,26.351 Z" fill="#037CFF"></path>
                </g>
                <path d="M205.964,29.348 C203.109,33.587 199.4,36.453 196.307,37.134 C193.841,33.057 193.214,27.866 197.118,21.54 C199.746,17.29 204.126,16.014 209.295,16.555 C210.301,19.647 209.1,24.665 205.964,29.348 Z" id="Shape" fill="#CBE1FF"></path>
                <path d="M145.273,26.352 C145.273,26.352 124.098,33.976 79.532,35.739 C102.534,31.911 121.298,20.458 130.057,5.404 C133.82,4.128 137.605,2.776 141.412,1.37 C145.111,0.007 149.058,2.527 149.426,6.453 C149.934,12.066 149.567,19.853 145.273,26.352 Z" id="Shape" fill="#0066F9"></path>
            </g>
            <g id="Group" transform="translate(19.000000, 266.000000)">
                <g id="Shape">
                    <path d="M366.034,88.358 C366.034,88.358 348.902,-20.497 252.486,3.803 C187.54,20.171 72.087,81 3.64,118.964 C-3.42,122.88 1.112,133.638 8.845,131.319 C112.127,100.355 316.163,46.599 366.034,88.358 Z" fill="#00969C"></path>
                    <path d="M366.034,88.355 C338.122,64.985 261.923,71.539 182.123,87.263 C243.279,64.52 284.114,30.682 282.817,0.347 C352.634,3.202 366.034,88.355 366.034,88.355 Z" fill="#3C3C3C" style="mix-blend-mode: soft-light;"></path>
                    <path d="M218.656,14.501 C195.844,22.836 170.045,34.046 143.663,46.471 C132.481,51.737 128.562,65.699 135.375,76.012 L135.604,76.358 C141.212,84.848 152.233,87.877 161.398,83.458 C186.02,71.588 210.481,60.532 232.855,51.617 C243.332,47.442 248.151,35.345 243.431,25.102 C243.376,24.983 243.322,24.864 243.267,24.746 C238.982,15.442 228.278,10.985 218.656,14.501 Z" fill="#C8C8C8" style="mix-blend-mode: soft-light;"></path>
                    <path d="M188.788,26.293 C185.698,27.589 182.577,28.918 179.43,30.279 C168.75,34.895 164.166,47.601 169.576,57.901 C169.663,58.066 169.749,58.231 169.835,58.396 C174.759,67.79 186.114,71.764 195.788,67.416 C198.772,66.075 201.739,64.756 204.687,63.461 C214.81,59.015 219.425,47.23 214.991,37.102 C214.937,36.98 214.884,36.857 214.83,36.735 C210.452,26.729 198.859,22.07 188.788,26.293 Z" fill="#BBBBBB" style="mix-blend-mode: soft-light;"></path>
                </g>
                <path d="M324.524,74.288 C329.758,66.48 332.819,57.071 332.819,46.96 C332.819,31.192 325.379,17.144 313.829,8.168 C356.817,29.775 366.03,88.357 366.03,88.357 C356.87,80.69 342.509,76.246 324.524,74.288 Z" id="Shape" fill="#0A0A0A" style="mix-blend-mode: soft-light;"></path>
            </g>
        </g>
    </g>
</svg>